<?xml version="1.0" encoding="UTF-8" standalone="no"?>
<svg
   width="153.5"
   height="153.5"
   viewBox="0 0 153.5 153.5"
   fill="none"
   version="1.1"
   id="svg68"
   sodipodi:docname="logo.svg"
   inkscape:version="1.2.2 (b0a8486541, 2022-12-01)"
   xmlns:inkscape="http://www.inkscape.org/namespaces/inkscape"
   xmlns:sodipodi="http://sodipodi.sourceforge.net/DTD/sodipodi-0.dtd"
   xmlns="http://www.w3.org/2000/svg"
   xmlns:svg="http://www.w3.org/2000/svg">
  <defs
     id="defs72" />
  <sodipodi:namedview
     id="namedview70"
     pagecolor="#ffffff"
     bordercolor="#000000"
     borderopacity="0.25"
     inkscape:showpageshadow="2"
     inkscape:pageopacity="0.0"
     inkscape:pagecheckerboard="0"
     inkscape:deskcolor="#d1d1d1"
     showgrid="false"
     inkscape:zoom="3.3562092"
     inkscape:cx="25.922103"
     inkscape:cy="76.872444"
     inkscape:window-width="2560"
     inkscape:window-height="1371"
     inkscape:window-x="0"
     inkscape:window-y="32"
     inkscape:window-maximized="1"
     inkscape:current-layer="svg68"
     showguides="false" />
  <rect
     width="153"
     height="153"
     rx="15"
     fill="#0066ff"
     id="rect54"
     x="0.25"
     y="0.25"
     style="stroke-width:0.5" />
  <path
     d="M 84.6445,36.72955 70.666,87.534 c -0.6435,2.3385 -4.1825,1.8855 -4.1825,-0.5355 V 34.40475 c 0,-4.96445 4.136,-8.989 9.238,-8.989 6.073,0 10.494,5.6051 8.923,11.3138 z"
     fill="#ffffff"
     id="path56"
     style="stroke-width:0.5" />
  <path
     d="M 109.9075,62.6705 77.136,93.2355 c -1.7115,1.596 -4.3425,-0.4495 -3.1795,-2.4725 l 22.264,-38.7335 c 2.662,-4.63065 8.8515,-5.8499 13.0845,-2.5776 4.249,3.2846 4.5345,9.5511 0.6025,13.2186 z"
     fill="#ffffff"
     id="path58"
     style="stroke-width:0.5" />
  <path
     d="m 105.7575,101.3905 h -24.869 c -2.197,0 -2.8965,-3.057 -0.931,-4.071 l 22.2435,-11.479 c 5.288,-2.729 11.5095,1.24 11.5095,7.3415 0,4.5335 -3.5605,8.2085 -7.953,8.2085 z"
     fill="#ffffff"
     id="path60"
     style="stroke-width:0.5" />
  <path
     fill-rule="evenodd"
     clip-rule="evenodd"
     d="m 46.9758,25.41575 c 3.9692,0 7.1867,3.21765 7.1867,7.1868 v 88.29495 c 0,3.969 -3.2175,7.187 -7.1867,7.187 -3.96915,0 -7.1868,-3.218 -7.1868,-7.187 V 32.60255 c 0,-3.96915 3.21765,-7.1868 7.1868,-7.1868 z"
     fill="#ffffff"
     id="path62"
     style="stroke-width:0.5" />
  <path
     fill-rule="evenodd"
     clip-rule="evenodd"
     d="m 113.711,120.8975 c 0,3.9695 -3.2175,7.187 -7.187,7.187 H 46.97635 c -3.96915,0 -7.1868,-3.2175 -7.1868,-7.187 0,-3.969 3.21765,-7.1865 7.1868,-7.1865 H 106.524 c 3.9695,0 7.187,3.2175 7.187,7.1865 z"
     fill="#ffffff"
     id="path64"
     style="stroke-width:0.5" />
  <rect
     width="153"
     height="153"
     rx="15"
     stroke="#ffffff"
     id="rect66"
     x="0.25"
     y="0.25"
     style="stroke-width:0.5" />
</svg>
