<svg width="352" height="489" viewBox="0 0 352 489" fill="none" xmlns="http://www.w3.org/2000/svg">
<path d="M213.445 53.8368L146.927 295.591C143.866 306.719 127.025 304.563 127.025 293.043V42.7742C127.025 19.1507 146.706 0 170.983 0C199.882 0 220.919 26.6719 213.445 53.8368Z" fill="#0066FF"/>
<path d="M333.66 177.276L177.718 322.72C169.573 330.316 157.054 320.583 162.587 310.956L268.531 126.64C281.197 104.606 310.649 98.8046 330.794 114.376C351.013 130.005 352.372 159.824 333.66 177.276Z" fill="#0066FF"/>
<path d="M313.912 361.527L195.572 361.527C185.117 361.527 181.79 346.981 191.141 342.155L296.988 287.533C322.15 274.548 351.756 293.433 351.756 322.469C351.756 344.04 334.813 361.527 313.912 361.527Z" fill="#0066FF"/>
<path fill-rule="evenodd" clip-rule="evenodd" d="M34.199 1.49486e-06C53.0863 6.69273e-07 68.3975 15.3112 68.3975 34.1985L68.3975 454.351C68.3975 473.239 53.0863 488.55 34.199 488.55C15.3117 488.55 0.00048894 473.239 0.000488114 454.351L0.000469749 34.1985C0.000468923 15.3112 15.3117 2.32045e-06 34.199 1.49486e-06Z" fill="#0066FF"/>
<path fill-rule="evenodd" clip-rule="evenodd" d="M351.759 454.351C351.759 473.239 336.448 488.55 317.56 488.55L34.2013 488.55C15.314 488.55 0.00279236 473.239 0.00279236 454.351C0.00279236 435.464 15.314 420.153 34.2013 420.153L317.56 420.153C336.448 420.153 351.759 435.464 351.759 454.351Z" fill="#0066FF"/>
</svg>
